<svg width="12" height="20" viewBox="0 0 12 20" xmlns="http://www.w3.org/2000/svg">
<path fill-rule="evenodd" clip-rule="evenodd" d="M4.70755 1.92356C5.67103 0.978818 6.97553 0.449951 8.33353 0.449951H11.0835C11.3873 0.449951 11.6335 0.696195 11.6335 0.999951V4.59529C11.6335 4.89905 11.3873 5.1453 11.0835 5.1453H8.33353C8.23284 5.1453 8.13839 5.18462 8.07042 5.25127C8.00281 5.31756 7.96686 5.40514 7.96686 5.49413V7.64064H11.0835C11.2533 7.64064 11.4136 7.71908 11.5178 7.85317C11.622 7.98727 11.6584 8.16197 11.6165 8.32652L10.6998 11.9219C10.6377 12.1655 10.4183 12.336 10.1669 12.336H7.96686V18.9767C7.96686 19.2804 7.72062 19.5267 7.41686 19.5267H3.7502C3.44644 19.5267 3.2002 19.2804 3.2002 18.9767V12.336H1.0002C0.696439 12.336 0.450195 12.0897 0.450195 11.786V8.19064C0.450195 7.88688 0.696439 7.64064 1.0002 7.64064H3.2002V5.49413C3.2002 4.15281 3.74371 2.86865 4.70755 1.92356ZM8.33353 1.54995C7.26037 1.54995 6.2333 1.96807 5.47769 2.70898C4.72246 3.44952 4.3002 4.45159 4.3002 5.49413V8.19064C4.3002 8.4944 4.05395 8.74064 3.7502 8.74064H1.5502V11.236H3.7502C4.05395 11.236 4.3002 11.4822 4.3002 11.786V18.4267H6.86686V11.786C6.86686 11.4822 7.11311 11.236 7.41686 11.236H9.7395L10.3757 8.74064H7.41686C7.11311 8.74064 6.86686 8.4944 6.86686 8.19064V5.49413C6.86686 5.10635 7.02407 4.73669 7.30028 4.46585C7.57612 4.19537 7.94799 4.0453 8.33353 4.0453H10.5335V1.54995H8.33353Z"/>
</svg>
